<mxfile host="app.diagrams.net" modified="2022-06-13T02:24:51.696Z" agent="5.0 (Windows NT 10.0; Win64; x64) AppleWebKit/537.36 (KHTML, like Gecko) Chrome/102.0.0.0 Safari/537.36" etag="F12YMSsDs__7lunsX9Eo" version="20.0.1" type="github">
  <diagram id="9EqGme9XQ8Pk4LfK-jfx" name="Page-1">
    <mxGraphModel dx="1303" dy="2399" grid="1" gridSize="10" guides="1" tooltips="1" connect="1" arrows="1" fold="1" page="1" pageScale="1" pageWidth="827" pageHeight="1169" math="0" shadow="0">
      <root>
        <mxCell id="0" />
        <mxCell id="1" parent="0" />
        <mxCell id="70MOKPNWR5bHBcbS_oCV-29" style="edgeStyle=orthogonalEdgeStyle;rounded=0;orthogonalLoop=1;jettySize=auto;html=1;entryX=0.5;entryY=0;entryDx=0;entryDy=0;" parent="1" source="pPeF-HTOgFZXbcfXd0PG-1" target="pPeF-HTOgFZXbcfXd0PG-47" edge="1">
          <mxGeometry relative="1" as="geometry" />
        </mxCell>
        <mxCell id="pPeF-HTOgFZXbcfXd0PG-1" value="Consensus" style="swimlane;startSize=30;html=1;whiteSpace=wrap;childLayout=stackLayout;resizeParent=1;dropTarget=0;spacing=0;strokeColor=#3a414a;strokeOpacity=100;rounded=1;absoluteArcSize=1;arcSize=9;strokeWidth=0.8;container=1;pointerEvents=0;collapsible=0;recursiveResize=0;fontSize=16.7;fontColor=#3a414a;" parent="1" vertex="1">
          <mxGeometry x="350" y="-110" width="1310" height="1270" as="geometry" />
        </mxCell>
        <mxCell id="pPeF-HTOgFZXbcfXd0PG-2" value="&lt;b&gt;Fog Node&lt;/b&gt;" style="swimlane;html=1;whiteSpace=wrap;connectable=0;fontStyle=0;startSize=30;dropTarget=0;rounded=0;spacing=0;strokeColor=#3a414a;strokeOpacity=100;strokeWidth=0.8;container=1;pointerEvents=0;collapsible=0;recursiveResize=0;fontSize=16.7;fontColor=#3a414a;" parent="pPeF-HTOgFZXbcfXd0PG-1" vertex="1">
          <mxGeometry y="30" width="260" height="1240" as="geometry" />
        </mxCell>
        <mxCell id="pPeF-HTOgFZXbcfXd0PG-3" value="&lt;b&gt;BaseBroker&lt;/b&gt;" style="swimlane;html=1;whiteSpace=wrap;connectable=0;fontStyle=0;startSize=30;dropTarget=0;rounded=0;spacing=0;strokeColor=#3a414a;strokeOpacity=100;strokeWidth=0.8;container=1;pointerEvents=0;collapsible=0;recursiveResize=0;fontSize=16.7;fontColor=#3a414a;" parent="pPeF-HTOgFZXbcfXd0PG-1" vertex="1">
          <mxGeometry x="260" y="30" width="240" height="1240" as="geometry" />
        </mxCell>
        <mxCell id="q8GRIB_LQ3VLVeIIKjB8-7" value="&lt;div style=&quot;display: flex ; justify-content: center ; text-align: center ; align-items: baseline ; font-size: 0 ; line-height: 1.25 ; margin-top: -2px&quot;&gt;&lt;span&gt;&lt;span style=&quot;font-size: 16.7px ; color: #3a414a&quot;&gt;Receives the results from all other base brokers&lt;/span&gt;&lt;/span&gt;&lt;/div&gt;" style="rounded=1;arcSize=20;whiteSpace=wrap;overflow=block;blockSpacing=1;html=1;fontSize=13;spacing=0;strokeColor=#3a414a;strokeOpacity=100;strokeWidth=0.8;" parent="pPeF-HTOgFZXbcfXd0PG-3" vertex="1">
          <mxGeometry x="15" y="1030" width="210" height="80" as="geometry" />
        </mxCell>
        <mxCell id="pPeF-HTOgFZXbcfXd0PG-4" value="&lt;b&gt;Orderer&lt;/b&gt;" style="swimlane;html=1;whiteSpace=wrap;connectable=0;fontStyle=0;startSize=30;dropTarget=0;rounded=0;spacing=0;strokeColor=#3a414a;strokeOpacity=100;strokeWidth=0.8;container=1;pointerEvents=0;collapsible=0;recursiveResize=0;fontSize=16.7;fontColor=#3a414a;" parent="pPeF-HTOgFZXbcfXd0PG-1" vertex="1">
          <mxGeometry x="500" y="30" width="240" height="1240" as="geometry" />
        </mxCell>
        <mxCell id="pPeF-HTOgFZXbcfXd0PG-5" value="&lt;b&gt;Other BaseBrokers&lt;/b&gt;" style="swimlane;html=1;whiteSpace=wrap;connectable=0;fontStyle=0;startSize=30;dropTarget=0;rounded=0;spacing=0;strokeColor=#3a414a;strokeOpacity=100;strokeWidth=0.8;container=1;pointerEvents=0;collapsible=0;recursiveResize=0;fontSize=16.7;fontColor=#3a414a;" parent="pPeF-HTOgFZXbcfXd0PG-1" vertex="1">
          <mxGeometry x="740" y="30" width="240" height="1240" as="geometry" />
        </mxCell>
        <mxCell id="pPeF-HTOgFZXbcfXd0PG-6" value="&lt;b&gt;Other FogNodes&lt;/b&gt;" style="swimlane;html=1;whiteSpace=wrap;connectable=0;fontStyle=0;startSize=30;dropTarget=0;rounded=0;spacing=0;strokeColor=#3a414a;strokeOpacity=100;strokeWidth=0.8;container=1;pointerEvents=0;collapsible=0;recursiveResize=0;fontSize=16.7;fontColor=#3a414a;" parent="pPeF-HTOgFZXbcfXd0PG-1" vertex="1">
          <mxGeometry x="980" y="30" width="330" height="1240" as="geometry" />
        </mxCell>
        <mxCell id="70MOKPNWR5bHBcbS_oCV-13" value="" style="edgeStyle=orthogonalEdgeStyle;rounded=0;orthogonalLoop=1;jettySize=auto;html=1;" parent="1" source="pPeF-HTOgFZXbcfXd0PG-7" target="pPeF-HTOgFZXbcfXd0PG-12" edge="1">
          <mxGeometry relative="1" as="geometry" />
        </mxCell>
        <mxCell id="TRnXH6oCPx6yjBUk1Vtk-3" value="" style="edgeStyle=orthogonalEdgeStyle;rounded=0;orthogonalLoop=1;jettySize=auto;html=1;" parent="1" source="pPeF-HTOgFZXbcfXd0PG-7" target="pPeF-HTOgFZXbcfXd0PG-12" edge="1">
          <mxGeometry relative="1" as="geometry" />
        </mxCell>
        <UserObject label="" lucidchartObjectId="CdP9xf9X6418" id="pPeF-HTOgFZXbcfXd0PG-7">
          <mxCell style="html=1;overflow=block;blockSpacing=1;whiteSpace=wrap;ellipse;fillColor=#000000;fontSize=13;spacing=0;strokeColor=#3a414a;strokeOpacity=100;rounded=1;absoluteArcSize=1;arcSize=9;strokeWidth=0.8;" parent="1" vertex="1">
            <mxGeometry x="465" y="-41" width="30" height="30" as="geometry" />
          </mxCell>
        </UserObject>
        <mxCell id="rrN4N4hDKfbgkkzq7W36-2" style="edgeStyle=orthogonalEdgeStyle;rounded=0;orthogonalLoop=1;jettySize=auto;html=1;exitX=0.5;exitY=1;exitDx=0;exitDy=0;entryX=0.5;entryY=0;entryDx=0;entryDy=0;" edge="1" parent="1" source="pPeF-HTOgFZXbcfXd0PG-8" target="pPeF-HTOgFZXbcfXd0PG-9">
          <mxGeometry relative="1" as="geometry" />
        </mxCell>
        <mxCell id="pPeF-HTOgFZXbcfXd0PG-8" value="&lt;div style=&quot;display: flex; justify-content: center; text-align: center; align-items: baseline; font-size: 0; line-height: 1.25;margin-top: -2px;&quot;&gt;&lt;span&gt;&lt;span style=&quot;font-size:16.7px;color:#3a414a;&quot;&gt;Creates a consensus request&lt;/span&gt;&lt;/span&gt;&lt;/div&gt;" style="rounded=1;arcSize=20;whiteSpace=wrap;overflow=block;blockSpacing=1;html=1;fontSize=13;spacing=0;strokeColor=#3a414a;strokeOpacity=100;strokeWidth=0.8;" parent="1" vertex="1">
          <mxGeometry x="360" y="75" width="240" height="35" as="geometry" />
        </mxCell>
        <mxCell id="rrN4N4hDKfbgkkzq7W36-3" style="edgeStyle=orthogonalEdgeStyle;rounded=0;orthogonalLoop=1;jettySize=auto;html=1;exitX=0.5;exitY=1;exitDx=0;exitDy=0;entryX=0.5;entryY=0;entryDx=0;entryDy=0;" edge="1" parent="1" source="pPeF-HTOgFZXbcfXd0PG-9" target="pPeF-HTOgFZXbcfXd0PG-11">
          <mxGeometry relative="1" as="geometry" />
        </mxCell>
        <mxCell id="pPeF-HTOgFZXbcfXd0PG-9" value="&lt;div style=&quot;display: flex; justify-content: center; text-align: center; align-items: baseline; font-size: 0; line-height: 1.25;margin-top: -2px;&quot;&gt;&lt;span&gt;&lt;span style=&quot;font-size:16.7px;color:#3a414a;&quot;&gt;Adds a block to consensus request&lt;/span&gt;&lt;/span&gt;&lt;/div&gt;" style="rounded=1;arcSize=20;whiteSpace=wrap;overflow=block;blockSpacing=1;html=1;fontSize=13;spacing=0;strokeColor=#3a414a;strokeOpacity=100;strokeWidth=0.8;" parent="1" vertex="1">
          <mxGeometry x="360" y="129.61" width="240" height="50.39" as="geometry" />
        </mxCell>
        <mxCell id="rrN4N4hDKfbgkkzq7W36-4" style="edgeStyle=orthogonalEdgeStyle;rounded=0;orthogonalLoop=1;jettySize=auto;html=1;exitX=1;exitY=0.5;exitDx=0;exitDy=0;entryX=0;entryY=0.5;entryDx=0;entryDy=0;" edge="1" parent="1" source="pPeF-HTOgFZXbcfXd0PG-11" target="pPeF-HTOgFZXbcfXd0PG-16">
          <mxGeometry relative="1" as="geometry" />
        </mxCell>
        <mxCell id="pPeF-HTOgFZXbcfXd0PG-11" value="&lt;div style=&quot;display: flex; justify-content: center; text-align: center; align-items: baseline; font-size: 0; line-height: 1.25;margin-top: -2px;&quot;&gt;&lt;span&gt;&lt;span style=&quot;font-size:16.7px;color:#3a414a;&quot;&gt;Sends a request to&amp;nbsp; the base broker in its fog area&lt;/span&gt;&lt;/span&gt;&lt;/div&gt;" style="rounded=1;arcSize=20;whiteSpace=wrap;overflow=block;blockSpacing=1;html=1;fontSize=13;spacing=0;strokeColor=#3a414a;strokeOpacity=100;strokeWidth=0.8;" parent="1" vertex="1">
          <mxGeometry x="360" y="201" width="240" height="49" as="geometry" />
        </mxCell>
        <mxCell id="rrN4N4hDKfbgkkzq7W36-1" style="edgeStyle=orthogonalEdgeStyle;rounded=0;orthogonalLoop=1;jettySize=auto;html=1;exitX=0.5;exitY=1;exitDx=0;exitDy=0;entryX=0.5;entryY=0;entryDx=0;entryDy=0;" edge="1" parent="1" source="pPeF-HTOgFZXbcfXd0PG-12" target="pPeF-HTOgFZXbcfXd0PG-8">
          <mxGeometry relative="1" as="geometry" />
        </mxCell>
        <mxCell id="pPeF-HTOgFZXbcfXd0PG-12" value="&lt;div style=&quot;display: flex; justify-content: center; text-align: center; align-items: baseline; font-size: 0; line-height: 1.25;margin-top: -2px;&quot;&gt;&lt;span&gt;&lt;span style=&quot;font-size:16.7px;color:#3a414a;&quot;&gt;Creates a block of transactions to process&amp;nbsp;&lt;/span&gt;&lt;/span&gt;&lt;/div&gt;" style="rounded=1;arcSize=20;whiteSpace=wrap;overflow=block;blockSpacing=1;html=1;fontSize=13;spacing=0;strokeColor=#3a414a;strokeOpacity=100;strokeWidth=0.8;" parent="1" vertex="1">
          <mxGeometry x="360" y="7" width="240" height="53" as="geometry" />
        </mxCell>
        <UserObject label="" lucidchartObjectId="PmP9a8LX6a7B" id="pPeF-HTOgFZXbcfXd0PG-13">
          <mxCell style="html=1;jettySize=18;whiteSpace=wrap;overflow=block;blockSpacing=1;fontSize=13;strokeColor=#3a414a;strokeOpacity=100;strokeWidth=0.8;rounded=1;arcSize=12;edgeStyle=orthogonalEdgeStyle;startArrow=none;endArrow=block;endFill=1;exitX=0.5;exitY=1.013;exitPerimeter=0;entryX=0.5;entryY=-0.006;entryPerimeter=0;" parent="1" target="pPeF-HTOgFZXbcfXd0PG-12" edge="1">
            <mxGeometry width="100" height="100" relative="1" as="geometry">
              <Array as="points" />
              <mxPoint x="485" y="-1.2789769243681803e-13" as="sourcePoint" />
            </mxGeometry>
          </mxCell>
        </UserObject>
        <mxCell id="rrN4N4hDKfbgkkzq7W36-5" style="edgeStyle=orthogonalEdgeStyle;rounded=0;orthogonalLoop=1;jettySize=auto;html=1;exitX=0.5;exitY=1;exitDx=0;exitDy=0;entryX=0.5;entryY=0;entryDx=0;entryDy=0;" edge="1" parent="1" source="pPeF-HTOgFZXbcfXd0PG-16" target="pPeF-HTOgFZXbcfXd0PG-21">
          <mxGeometry relative="1" as="geometry" />
        </mxCell>
        <mxCell id="pPeF-HTOgFZXbcfXd0PG-16" value="&lt;div style=&quot;display: flex; justify-content: center; text-align: center; align-items: baseline; font-size: 0; line-height: 1.25;margin-top: -2px;&quot;&gt;&lt;span&gt;&lt;span style=&quot;font-size:16.7px;color:#3a414a;&quot;&gt;Receives a request from fog node&lt;/span&gt;&lt;/span&gt;&lt;/div&gt;" style="rounded=1;arcSize=20;whiteSpace=wrap;overflow=block;blockSpacing=1;html=1;fontSize=13;spacing=0;strokeColor=#3a414a;strokeOpacity=100;strokeWidth=0.8;" parent="1" vertex="1">
          <mxGeometry x="621" y="201" width="220" height="49" as="geometry" />
        </mxCell>
        <UserObject label="&lt;ul style=&quot;margin: 0px ; padding-left: 10px ; list-style-position: inside ; list-style-type: disc&quot;&gt;&lt;li style=&quot;text-align: left ; color: #3a414a ; font-size: 16.7px&quot;&gt;&lt;span style=&quot;margin-left: 0px ; margin-top: -2px&quot;&gt;&lt;span style=&quot;font-size: 16.7px ; color: #3a414a&quot;&gt;Add a different index for every block (local index)  then  map this number to the number given by the orderer (global index&lt;/span&gt;&lt;/span&gt;&lt;/li&gt;&lt;/ul&gt;&lt;div style=&quot;display: flex ; justify-content: center ; text-align: center ; align-items: baseline ; line-height: 1.25 ; margin-top: -2px ; font-size: 0px&quot;&gt;&lt;span&gt;&lt;span style=&quot;font-size: 16.7px ; color: #3a414a&quot;&gt;&lt;br&gt;- Processing type is different according to request type .&lt;br&gt;&lt;b&gt;-&amp;nbsp;&lt;/b&gt;&lt;/span&gt;&lt;span style=&quot;color: rgb(58 , 65 , 74) ; font-size: 16.7px&quot;&gt;&lt;b&gt;Registration&amp;nbsp;&lt;/b&gt;&lt;/span&gt;&lt;span style=&quot;font-size: 16.7px ; color: #3a414a&quot;&gt;: &lt;br&gt;+ Create Registration parameters(RID, FID, PKobu, SKobu), Signature, Certificate.&lt;br&gt;&lt;br&gt;+ the other fog nodes will store these results but they will check the time stamp and hash matching and perform&lt;br&gt;&lt;b&gt;- Authentication :&amp;nbsp;&lt;/b&gt;&lt;br&gt;+ Generate RN2.&lt;br&gt;+ Create AuthToken part 2(RN2*SKsys).&lt;br&gt;+ Create Session key(AuthToken part1 + AuthToken part2 + Certification obu).&amp;nbsp;&lt;br&gt;&lt;br&gt;&lt;b&gt;- Certification Update&lt;/b&gt;&lt;br&gt;+ Create new public, private keys, new signature and new certificate for the vehicle&lt;br&gt;&lt;br&gt;&lt;/span&gt;&lt;/span&gt;&lt;span&gt;&lt;span style=&quot;font-size: 16.7px ; color: #3a414a&quot;&gt;&lt;br&gt;&lt;/span&gt;&lt;/span&gt;&lt;span&gt;&lt;span style=&quot;font-size: 16.7px ; color: #3a414a&quot;&gt;&lt;br&gt;&lt;/span&gt;&lt;/span&gt;&lt;span&gt;&lt;span style=&quot;font-size: 16.7px ; color: #3a414a&quot;&gt;&lt;br&gt;&lt;/span&gt;&lt;/span&gt;&lt;span&gt;&lt;span style=&quot;font-size: 16.7px ; color: #3a414a&quot;&gt;&lt;br&gt;&lt;/span&gt;&lt;/span&gt;&lt;span&gt;&lt;span style=&quot;font-size: 16.7px ; color: #3a414a&quot;&gt;&lt;br&gt;&lt;/span&gt;&lt;/span&gt;&lt;span&gt;&lt;span style=&quot;font-size: 16.7px ; color: #3a414a&quot;&gt;&lt;br&gt;&lt;/span&gt;&lt;/span&gt;&lt;span&gt;&lt;span style=&quot;font-size: 16.7px ; color: #3a414a&quot;&gt;&lt;br&gt;&lt;/span&gt;&lt;/span&gt;&lt;span&gt;&lt;span style=&quot;font-size: 16.7px ; color: #3a414a&quot;&gt;&lt;br&gt;&lt;/span&gt;&lt;/span&gt;&lt;span&gt;&lt;span style=&quot;font-size: 16.7px ; color: #3a414a&quot;&gt;&lt;br&gt;&lt;/span&gt;&lt;/span&gt;&lt;span&gt;&lt;span style=&quot;font-size: 16.7px ; color: #3a414a&quot;&gt;&lt;br&gt;&lt;/span&gt;&lt;/span&gt;&lt;span&gt;&lt;span style=&quot;font-size: 16.7px ; color: #3a414a&quot;&gt;&lt;br&gt;&lt;/span&gt;&lt;/span&gt;&lt;span&gt;&lt;span style=&quot;font-size: 16.7px ; color: #3a414a&quot;&gt;&lt;br&gt;&lt;/span&gt;&lt;/span&gt;&lt;span&gt;&lt;span style=&quot;font-size: 16.7px ; color: #3a414a&quot;&gt;&lt;br&gt;&lt;/span&gt;&lt;/span&gt;&lt;span&gt;&lt;span style=&quot;font-size: 16.7px ; color: #3a414a&quot;&gt;&lt;br&gt;&lt;/span&gt;&lt;/span&gt;&lt;span&gt;&lt;span style=&quot;font-size: 16.7px ; color: #3a414a&quot;&gt;&lt;br&gt;&lt;/span&gt;&lt;/span&gt;&lt;span&gt;&lt;span style=&quot;font-size: 16.7px ; color: #3a414a&quot;&gt;&lt;br&gt;&lt;/span&gt;&lt;/span&gt;&lt;span&gt;&lt;span style=&quot;font-size: 16.7px ; color: #3a414a&quot;&gt;&lt;br&gt;&lt;/span&gt;&lt;/span&gt;&lt;span&gt;&lt;span style=&quot;font-size: 16.7px ; color: #3a414a&quot;&gt;&lt;br&gt;&lt;/span&gt;&lt;/span&gt;&lt;span&gt;&lt;span style=&quot;font-size: 16.7px ; color: #3a414a&quot;&gt;&lt;br&gt;&lt;/span&gt;&lt;/span&gt;&lt;span&gt;&lt;span style=&quot;font-size: 16.7px ; color: #3a414a&quot;&gt;&lt;br&gt;&lt;/span&gt;&lt;/span&gt;&lt;span&gt;&lt;span style=&quot;font-size: 16.7px ; color: #3a414a&quot;&gt;&lt;br&gt;&lt;/span&gt;&lt;/span&gt;&lt;span&gt;&lt;span style=&quot;font-size: 16.7px ; color: #3a414a&quot;&gt;&lt;br&gt;&lt;/span&gt;&lt;/span&gt;&lt;span&gt;&lt;span style=&quot;font-size: 16.7px ; color: #3a414a&quot;&gt;&lt;br&gt;&lt;/span&gt;&lt;/span&gt;&lt;span&gt;&lt;span style=&quot;font-size: 16.7px ; color: #3a414a&quot;&gt;&lt;br&gt;&lt;/span&gt;&lt;/span&gt;&lt;span&gt;&lt;span style=&quot;font-size: 16.7px ; color: #3a414a&quot;&gt;&lt;br&gt;&lt;/span&gt;&lt;/span&gt;&lt;span&gt;&lt;br&gt;&lt;/span&gt;&lt;span&gt;&lt;span style=&quot;font-size: 16.7px ; color: #3a414a&quot;&gt;&lt;br&gt;&lt;/span&gt;&lt;/span&gt;&lt;/div&gt;" lucidchartObjectId="moP9F8FH.Dze" id="pPeF-HTOgFZXbcfXd0PG-17">
          <mxCell style="html=1;overflow=block;blockSpacing=1;whiteSpace=wrap;fontSize=13;spacing=9;strokeColor=#3a414a;strokeOpacity=100;rounded=1;absoluteArcSize=1;arcSize=9;strokeWidth=0.8;" parent="1" vertex="1">
            <mxGeometry x="60" y="-101" width="245" height="881" as="geometry" />
          </mxCell>
        </UserObject>
        <UserObject label="" lucidchartObjectId="DoP9wG~hN0e~" id="pPeF-HTOgFZXbcfXd0PG-18">
          <mxCell style="html=1;jettySize=18;whiteSpace=wrap;overflow=block;blockSpacing=1;fontSize=13;strokeColor=#3a414a;strokeOpacity=100;strokeWidth=0.8;rounded=1;arcSize=12;edgeStyle=orthogonalEdgeStyle;startArrow=none;endArrow=block;endFill=1;exitX=0.007;exitY=0.114;exitPerimeter=0;entryX=1.002;entryY=0.163;entryPerimeter=0;" parent="1" source="pPeF-HTOgFZXbcfXd0PG-12" target="pPeF-HTOgFZXbcfXd0PG-17" edge="1">
            <mxGeometry width="100" height="100" relative="1" as="geometry">
              <Array as="points" />
            </mxGeometry>
          </mxCell>
        </UserObject>
        <mxCell id="rrN4N4hDKfbgkkzq7W36-6" style="edgeStyle=orthogonalEdgeStyle;rounded=0;orthogonalLoop=1;jettySize=auto;html=1;exitX=0.5;exitY=1;exitDx=0;exitDy=0;entryX=0.5;entryY=0;entryDx=0;entryDy=0;" edge="1" parent="1" source="pPeF-HTOgFZXbcfXd0PG-21" target="pPeF-HTOgFZXbcfXd0PG-23">
          <mxGeometry relative="1" as="geometry" />
        </mxCell>
        <mxCell id="pPeF-HTOgFZXbcfXd0PG-21" value="&lt;div style=&quot;display: flex; justify-content: center; text-align: center; align-items: baseline; font-size: 0; line-height: 1.25;margin-top: -2px;&quot;&gt;&lt;span&gt;&lt;span style=&quot;font-size:16.7px;color:#3a414a;&quot;&gt;Adds a request to the consensus topic queue&lt;/span&gt;&lt;/span&gt;&lt;/div&gt;" style="rounded=1;arcSize=20;whiteSpace=wrap;overflow=block;blockSpacing=1;html=1;fontSize=13;spacing=0;strokeColor=#3a414a;strokeOpacity=100;strokeWidth=0.8;" parent="1" vertex="1">
          <mxGeometry x="620" y="269.61" width="220" height="43" as="geometry" />
        </mxCell>
        <mxCell id="rrN4N4hDKfbgkkzq7W36-8" style="edgeStyle=orthogonalEdgeStyle;rounded=0;orthogonalLoop=1;jettySize=auto;html=1;exitX=1;exitY=0.5;exitDx=0;exitDy=0;entryX=0;entryY=0.5;entryDx=0;entryDy=0;" edge="1" parent="1" source="pPeF-HTOgFZXbcfXd0PG-23" target="pPeF-HTOgFZXbcfXd0PG-27">
          <mxGeometry relative="1" as="geometry" />
        </mxCell>
        <mxCell id="pPeF-HTOgFZXbcfXd0PG-23" value="&lt;div style=&quot;display: flex; justify-content: center; text-align: center; align-items: baseline; font-size: 0; line-height: 1.25;margin-top: -2px;&quot;&gt;&lt;span&gt;&lt;span style=&quot;font-size:16.7px;color:#3a414a;&quot;&gt;Sends the request to the Ordrer&lt;/span&gt;&lt;/span&gt;&lt;/div&gt;" style="rounded=1;arcSize=20;whiteSpace=wrap;overflow=block;blockSpacing=1;html=1;fontSize=13;spacing=0;strokeColor=#3a414a;strokeOpacity=100;strokeWidth=0.8;" parent="1" vertex="1">
          <mxGeometry x="620" y="328" width="220" height="42" as="geometry" />
        </mxCell>
        <UserObject label="&lt;ul style=&quot;margin: 0px; padding-left: 10px;list-style-position: inside; list-style-type:disc&quot;&gt;&lt;li style=&quot;text-align:left;font-size:16.8px;&quot;&gt;&lt;span style=&quot;margin-left: 0px;margin-top: -2px;&quot;&gt;&lt;span style=&quot;font-size:16.8px;&quot;&gt;it is used to make the indicies of blocks is the same from the point of view of all other basebrokers and fog nodes&lt;/span&gt;&lt;/span&gt;&lt;/li&gt;&lt;/ul&gt;" lucidchartObjectId="7KP9td6ryeQL" id="pPeF-HTOgFZXbcfXd0PG-25">
          <mxCell style="html=1;overflow=block;blockSpacing=1;whiteSpace=wrap;shadow=1;fontSize=13;spacing=3.8;strokeColor=none;fillColor=#FFECA9;strokeWidth=0;" parent="1" vertex="1">
            <mxGeometry x="1350" y="-320" width="210" height="130" as="geometry" />
          </mxCell>
        </UserObject>
        <UserObject label="" lucidchartObjectId="dMP9-0muirMH" id="pPeF-HTOgFZXbcfXd0PG-26">
          <mxCell style="html=1;jettySize=18;whiteSpace=wrap;overflow=block;blockSpacing=1;fontSize=13;strokeColor=#3a414a;strokeOpacity=100;strokeWidth=0.8;rounded=1;arcSize=12;edgeStyle=orthogonalEdgeStyle;startArrow=none;endArrow=block;endFill=1;entryX=0.464;entryY=1;entryPerimeter=0;" parent="1" target="pPeF-HTOgFZXbcfXd0PG-25" edge="1">
            <mxGeometry width="100" height="100" relative="1" as="geometry">
              <Array as="points" />
              <mxPoint x="1447" y="-110" as="sourcePoint" />
            </mxGeometry>
          </mxCell>
        </UserObject>
        <mxCell id="pPeF-HTOgFZXbcfXd0PG-27" value="&lt;div style=&quot;display: flex; justify-content: center; text-align: center; align-items: baseline; font-size: 0; line-height: 1.25;margin-top: -2px;&quot;&gt;&lt;span&gt;&lt;span style=&quot;font-size:16.7px;color:#3a414a;&quot;&gt;Receives a request from the base broker&lt;/span&gt;&lt;/span&gt;&lt;/div&gt;" style="rounded=1;arcSize=20;whiteSpace=wrap;overflow=block;blockSpacing=1;html=1;fontSize=13;spacing=0;strokeColor=#3a414a;strokeOpacity=100;strokeWidth=0.8;" parent="1" vertex="1">
          <mxGeometry x="860" y="325" width="220" height="48" as="geometry" />
        </mxCell>
        <UserObject label="" lucidchartObjectId="C6P97z8danBf" id="pPeF-HTOgFZXbcfXd0PG-29">
          <mxCell style="html=1;jettySize=18;whiteSpace=wrap;overflow=block;blockSpacing=1;fontSize=13;strokeColor=#3a414a;strokeOpacity=100;strokeWidth=0.8;rounded=1;arcSize=12;edgeStyle=orthogonalEdgeStyle;startArrow=none;endArrow=block;endFill=1;exitX=0.134;exitY=0;exitPerimeter=0;entryX=0.5;entryY=1;entryPerimeter=0;" parent="1" source="pPeF-HTOgFZXbcfXd0PG-1" target="pPeF-HTOgFZXbcfXd0PG-36" edge="1">
            <mxGeometry width="100" height="100" relative="1" as="geometry">
              <Array as="points" />
            </mxGeometry>
          </mxCell>
        </UserObject>
        <mxCell id="rrN4N4hDKfbgkkzq7W36-9" style="edgeStyle=orthogonalEdgeStyle;rounded=0;orthogonalLoop=1;jettySize=auto;html=1;exitX=0;exitY=0.5;exitDx=0;exitDy=0;entryX=1;entryY=0.5;entryDx=0;entryDy=0;" edge="1" parent="1" source="pPeF-HTOgFZXbcfXd0PG-30" target="pPeF-HTOgFZXbcfXd0PG-32">
          <mxGeometry relative="1" as="geometry" />
        </mxCell>
        <mxCell id="pPeF-HTOgFZXbcfXd0PG-30" value="&lt;div style=&quot;display: flex; justify-content: center; text-align: center; align-items: baseline; font-size: 0; line-height: 1.25;margin-top: -2px;&quot;&gt;&lt;span&gt;&lt;span style=&quot;font-size:16.7px;color:#3a414a;&quot;&gt;Gives the block a global index&lt;/span&gt;&lt;/span&gt;&lt;/div&gt;" style="rounded=1;arcSize=20;whiteSpace=wrap;overflow=block;blockSpacing=1;html=1;fontSize=13;spacing=0;strokeColor=#3a414a;strokeOpacity=100;strokeWidth=0.8;" parent="1" vertex="1">
          <mxGeometry x="860" y="388" width="220" height="50" as="geometry" />
        </mxCell>
        <UserObject label="" lucidchartObjectId="4wQ9gFIfpN7z" id="pPeF-HTOgFZXbcfXd0PG-31">
          <mxCell style="html=1;jettySize=18;whiteSpace=wrap;overflow=block;blockSpacing=1;fontSize=13;strokeColor=#3a414a;strokeOpacity=100;strokeWidth=0.8;rounded=1;arcSize=12;edgeStyle=orthogonalEdgeStyle;startArrow=none;endArrow=block;endFill=1;exitX=0.5;exitY=1.006;exitPerimeter=0;entryX=0.5;entryY=-0.006;entryPerimeter=0;" parent="1" source="pPeF-HTOgFZXbcfXd0PG-27" target="pPeF-HTOgFZXbcfXd0PG-30" edge="1">
            <mxGeometry width="100" height="100" relative="1" as="geometry">
              <Array as="points" />
            </mxGeometry>
          </mxCell>
        </UserObject>
        <mxCell id="pPeF-HTOgFZXbcfXd0PG-32" value="&lt;div style=&quot;display: flex; justify-content: center; text-align: center; align-items: baseline; font-size: 0; line-height: 1.25;margin-top: -2px;&quot;&gt;&lt;span&gt;&lt;span style=&quot;font-size:16.7px;color:#3a414a;&quot;&gt;Resieves a response from the ordrer&lt;/span&gt;&lt;/span&gt;&lt;/div&gt;" style="rounded=1;arcSize=20;whiteSpace=wrap;overflow=block;blockSpacing=1;html=1;fontSize=13;spacing=0;strokeColor=#3a414a;strokeOpacity=100;strokeWidth=0.8;" parent="1" vertex="1">
          <mxGeometry x="620" y="384" width="220" height="55" as="geometry" />
        </mxCell>
        <mxCell id="rrN4N4hDKfbgkkzq7W36-19" style="edgeStyle=orthogonalEdgeStyle;rounded=0;orthogonalLoop=1;jettySize=auto;html=1;exitX=1;exitY=0.25;exitDx=0;exitDy=0;entryX=0.5;entryY=0;entryDx=0;entryDy=0;" edge="1" parent="1" source="pPeF-HTOgFZXbcfXd0PG-34" target="pPeF-HTOgFZXbcfXd0PG-43">
          <mxGeometry relative="1" as="geometry" />
        </mxCell>
        <mxCell id="rrN4N4hDKfbgkkzq7W36-21" style="edgeStyle=orthogonalEdgeStyle;rounded=0;orthogonalLoop=1;jettySize=auto;html=1;exitX=1;exitY=0.75;exitDx=0;exitDy=0;entryX=0;entryY=0.5;entryDx=0;entryDy=0;" edge="1" parent="1" source="pPeF-HTOgFZXbcfXd0PG-34" target="pPeF-HTOgFZXbcfXd0PG-37">
          <mxGeometry relative="1" as="geometry" />
        </mxCell>
        <mxCell id="pPeF-HTOgFZXbcfXd0PG-34" value="&lt;div style=&quot;display: flex; justify-content: center; text-align: center; align-items: baseline; font-size: 0; line-height: 1.25;margin-top: -2px;&quot;&gt;&lt;span&gt;&lt;span style=&quot;font-size:16.7px;color:#3a414a;&quot;&gt;Broadcasts the request to the other base brokers and the other fog nodes&lt;/span&gt;&lt;/span&gt;&lt;/div&gt;" style="rounded=1;arcSize=20;whiteSpace=wrap;overflow=block;blockSpacing=1;html=1;fontSize=13;spacing=0;strokeColor=#3a414a;strokeOpacity=100;strokeWidth=0.8;" parent="1" vertex="1">
          <mxGeometry x="625" y="453" width="210" height="68.5" as="geometry" />
        </mxCell>
        <UserObject label="" lucidchartObjectId="czQ9E5rsv8D2" id="pPeF-HTOgFZXbcfXd0PG-35">
          <mxCell style="html=1;jettySize=18;whiteSpace=wrap;overflow=block;blockSpacing=1;fontSize=13;strokeColor=#3a414a;strokeOpacity=100;strokeWidth=0.8;rounded=1;arcSize=12;edgeStyle=orthogonalEdgeStyle;startArrow=none;endArrow=block;endFill=1;exitX=0.5;exitY=1.005;exitPerimeter=0;entryX=0.5;entryY=-0.004;entryPerimeter=0;" parent="1" source="pPeF-HTOgFZXbcfXd0PG-32" target="pPeF-HTOgFZXbcfXd0PG-34" edge="1">
            <mxGeometry width="100" height="100" relative="1" as="geometry">
              <Array as="points" />
            </mxGeometry>
          </mxCell>
        </UserObject>
        <UserObject label="&lt;ul style=&quot;margin: 0px; padding-left: 10px;list-style-position: inside; list-style-type:disc&quot;&gt;&lt;li style=&quot;text-align:left;&quot;&gt;&lt;span style=&quot;margin-left: 0px;margin-top: -2px;&quot;&gt;&lt;span style=&quot;font-size:13px;font-weight: bold;&quot;&gt;Has Pending Queu&lt;/span&gt;&lt;span style=&quot;font-size:13px;&quot;&gt;to add blocks in the ledger respectively&lt;/span&gt;&lt;/span&gt;&lt;/li&gt;&lt;/ul&gt;" lucidchartObjectId="m5P9grkiVBAP" id="pPeF-HTOgFZXbcfXd0PG-36">
          <mxCell style="html=1;overflow=block;blockSpacing=1;whiteSpace=wrap;shadow=1;fontSize=13;spacing=3.8;strokeColor=none;fillColor=#FFECA9;strokeWidth=0;" parent="1" vertex="1">
            <mxGeometry x="430" y="-310" width="165" height="135" as="geometry" />
          </mxCell>
        </UserObject>
        <mxCell id="pPeF-HTOgFZXbcfXd0PG-37" value="&lt;div style=&quot;display: flex; justify-content: center; text-align: center; align-items: baseline; font-size: 0; line-height: 1.25;margin-top: -2px;&quot;&gt;&lt;span&gt;&lt;span style=&quot;font-size:16.7px;color:#3a414a;&quot;&gt;Recieve the consensus request &lt;/span&gt;&lt;/span&gt;&lt;/div&gt;" style="rounded=1;arcSize=20;whiteSpace=wrap;overflow=block;blockSpacing=1;html=1;fontSize=13;spacing=0;strokeColor=#3a414a;strokeOpacity=100;strokeWidth=0.8;" parent="1" vertex="1">
          <mxGeometry x="1111.12" y="484.5" width="197.75" height="37" as="geometry" />
        </mxCell>
        <mxCell id="70MOKPNWR5bHBcbS_oCV-30" style="edgeStyle=orthogonalEdgeStyle;rounded=0;orthogonalLoop=1;jettySize=auto;html=1;exitX=1;exitY=0.5;exitDx=0;exitDy=0;entryX=0.5;entryY=1;entryDx=0;entryDy=0;fontSize=12;" parent="1" source="pPeF-HTOgFZXbcfXd0PG-39" target="q8GRIB_LQ3VLVeIIKjB8-63" edge="1">
          <mxGeometry relative="1" as="geometry">
            <Array as="points">
              <mxPoint x="1310" y="43" />
              <mxPoint x="1310" y="-129" />
              <mxPoint x="1241" y="-129" />
            </Array>
          </mxGeometry>
        </mxCell>
        <mxCell id="pPeF-HTOgFZXbcfXd0PG-39" value="&lt;div style=&quot;display: flex ; justify-content: center ; text-align: center ; align-items: baseline ; font-size: 0 ; line-height: 1.25 ; margin-top: -2px&quot;&gt;&lt;span&gt;&lt;span style=&quot;font-size: 16.7px ; color: #3a414a&quot;&gt;Check the authenticity of the request&amp;nbsp;&lt;/span&gt;&lt;/span&gt;&lt;/div&gt;" style="rounded=1;arcSize=20;whiteSpace=wrap;overflow=block;blockSpacing=1;html=1;fontSize=13;spacing=0;strokeColor=#3a414a;strokeOpacity=100;strokeWidth=0.8;" parent="1" vertex="1">
          <mxGeometry x="1100" y="536.11" width="220" height="42" as="geometry" />
        </mxCell>
        <UserObject label="" lucidchartObjectId="YFQ9fexnf5_q" id="pPeF-HTOgFZXbcfXd0PG-40">
          <mxCell style="html=1;jettySize=18;whiteSpace=wrap;overflow=block;blockSpacing=1;fontSize=13;strokeColor=#3a414a;strokeOpacity=100;strokeWidth=0.8;rounded=1;arcSize=12;edgeStyle=orthogonalEdgeStyle;startArrow=none;endArrow=block;endFill=1;exitX=0.5;exitY=1.005;exitPerimeter=0;entryX=0.5;entryY=-0.005;entryPerimeter=0;" parent="1" source="pPeF-HTOgFZXbcfXd0PG-37" target="pPeF-HTOgFZXbcfXd0PG-39" edge="1">
            <mxGeometry width="100" height="100" relative="1" as="geometry">
              <Array as="points" />
            </mxGeometry>
          </mxCell>
        </UserObject>
        <mxCell id="rrN4N4hDKfbgkkzq7W36-23" style="edgeStyle=orthogonalEdgeStyle;rounded=0;orthogonalLoop=1;jettySize=auto;html=1;exitX=1;exitY=0.5;exitDx=0;exitDy=0;entryX=0;entryY=0.5;entryDx=0;entryDy=0;" edge="1" parent="1" source="pPeF-HTOgFZXbcfXd0PG-41" target="pPeF-HTOgFZXbcfXd0PG-43">
          <mxGeometry relative="1" as="geometry" />
        </mxCell>
        <mxCell id="pPeF-HTOgFZXbcfXd0PG-41" value="&lt;div style=&quot;display: flex; justify-content: center; text-align: center; align-items: baseline; font-size: 0; line-height: 1.25;margin-top: -2px;&quot;&gt;&lt;span&gt;&lt;span style=&quot;font-size:16.7px;color:#3a414a;&quot;&gt;Send the request to connected fog nodes&lt;/span&gt;&lt;/span&gt;&lt;/div&gt;" style="rounded=1;arcSize=20;whiteSpace=wrap;overflow=block;blockSpacing=1;html=1;fontSize=13;spacing=0;strokeColor=#3a414a;strokeOpacity=100;strokeWidth=0.8;" parent="1" vertex="1">
          <mxGeometry x="1100" y="589.61" width="220" height="50.39" as="geometry" />
        </mxCell>
        <UserObject label="" lucidchartObjectId="CHQ9NxxEP6VY" id="pPeF-HTOgFZXbcfXd0PG-42">
          <mxCell style="html=1;jettySize=18;whiteSpace=wrap;overflow=block;blockSpacing=1;fontSize=13;strokeColor=#3a414a;strokeOpacity=100;strokeWidth=0.8;rounded=1;arcSize=12;edgeStyle=orthogonalEdgeStyle;startArrow=none;endArrow=block;endFill=1;exitX=0.5;exitY=1.005;exitPerimeter=0;entryX=0.5;entryY=-0.005;entryPerimeter=0;" parent="1" source="pPeF-HTOgFZXbcfXd0PG-39" target="pPeF-HTOgFZXbcfXd0PG-41" edge="1">
            <mxGeometry width="100" height="100" relative="1" as="geometry">
              <Array as="points" />
            </mxGeometry>
          </mxCell>
        </UserObject>
        <mxCell id="pPeF-HTOgFZXbcfXd0PG-43" value="&lt;div style=&quot;display: flex; justify-content: center; text-align: center; align-items: baseline; font-size: 0; line-height: 1.25;margin-top: -2px;&quot;&gt;&lt;span&gt;&lt;span style=&quot;font-size:16.7px;color:#3a414a;&quot;&gt;Receive the consensus request from base broker&lt;/span&gt;&lt;/span&gt;&lt;/div&gt;" style="rounded=1;arcSize=20;whiteSpace=wrap;overflow=block;blockSpacing=1;html=1;fontSize=13;spacing=0;strokeColor=#3a414a;strokeOpacity=100;strokeWidth=0.8;" parent="1" vertex="1">
          <mxGeometry x="1350" y="594.61" width="291.97" height="40.39" as="geometry" />
        </mxCell>
        <mxCell id="pPeF-HTOgFZXbcfXd0PG-45" value="&lt;div style=&quot;display: flex; justify-content: center; text-align: center; align-items: baseline; font-size: 0; line-height: 1.25;margin-top: -2px;&quot;&gt;&lt;span&gt;&lt;span style=&quot;font-size:16.7px;color:#3a414a;&quot;&gt;Check the validation of each transaction based on the rules of smart contract (protocol)&lt;/span&gt;&lt;/span&gt;&lt;/div&gt;" style="rounded=1;arcSize=20;whiteSpace=wrap;overflow=block;blockSpacing=1;html=1;fontSize=13;spacing=0;strokeColor=#3a414a;strokeOpacity=100;strokeWidth=0.8;" parent="1" vertex="1">
          <mxGeometry x="1340.99" y="650" width="310" height="75" as="geometry" />
        </mxCell>
        <UserObject label="" lucidchartObjectId="BMQ9BipFtnNu" id="pPeF-HTOgFZXbcfXd0PG-46">
          <mxCell style="html=1;jettySize=18;whiteSpace=wrap;overflow=block;blockSpacing=1;fontSize=13;strokeColor=#3a414a;strokeOpacity=100;strokeWidth=0.8;rounded=1;arcSize=12;edgeStyle=orthogonalEdgeStyle;startArrow=none;endArrow=block;endFill=1;exitX=0.5;exitY=1.004;exitPerimeter=0;entryX=0.5;entryY=-0.003;entryPerimeter=0;" parent="1" source="pPeF-HTOgFZXbcfXd0PG-43" target="pPeF-HTOgFZXbcfXd0PG-45" edge="1">
            <mxGeometry width="100" height="100" relative="1" as="geometry">
              <Array as="points" />
            </mxGeometry>
          </mxCell>
        </UserObject>
        <UserObject label="&lt;ul style=&quot;margin: 0px; padding-left: 10px;list-style-position: inside; list-style-type:disc&quot;&gt;&lt;li style=&quot;text-align: left;&quot;&gt;&lt;span style=&quot;margin-left: 0px; margin-top: -2px;&quot;&gt;&lt;font style=&quot;font-size: 14px;&quot;&gt;We assumed that the communication between basebrokers is insecure and a malicious actor may pretend to be a basebroker so we will make a shared signature derivated from the private key of the system and this signature does not distinguishes a specific base broker&lt;/font&gt;&lt;/span&gt;&lt;/li&gt;&lt;/ul&gt;" lucidchartObjectId="YCP9lDjcPJco" id="pPeF-HTOgFZXbcfXd0PG-47">
          <mxCell style="html=1;overflow=block;blockSpacing=1;whiteSpace=wrap;shadow=1;fontSize=13;spacing=3.8;strokeColor=none;fillColor=#FFECA9;strokeWidth=0;" parent="1" vertex="1">
            <mxGeometry x="826" y="1240" width="267" height="150" as="geometry" />
          </mxCell>
        </UserObject>
        <UserObject label="Request is meant by transaction" lucidchartObjectId="HMQ988gk.g1M" id="pPeF-HTOgFZXbcfXd0PG-48">
          <mxCell style="html=1;overflow=block;blockSpacing=1;whiteSpace=wrap;shadow=1;fontSize=13;spacing=3.8;strokeColor=none;fillColor=#FFECA9;strokeWidth=0;" parent="1" vertex="1">
            <mxGeometry x="1605" y="1335" width="120" height="120" as="geometry" />
          </mxCell>
        </UserObject>
        <mxCell id="rrN4N4hDKfbgkkzq7W36-22" style="edgeStyle=orthogonalEdgeStyle;rounded=0;orthogonalLoop=1;jettySize=auto;html=1;exitX=0.5;exitY=1;exitDx=0;exitDy=0;entryX=0.5;entryY=0;entryDx=0;entryDy=0;" edge="1" parent="1" source="pPeF-HTOgFZXbcfXd0PG-49" target="pPeF-HTOgFZXbcfXd0PG-52">
          <mxGeometry relative="1" as="geometry" />
        </mxCell>
        <mxCell id="pPeF-HTOgFZXbcfXd0PG-49" value="&lt;div style=&quot;display: flex ; justify-content: center ; text-align: center ; align-items: baseline ; font-size: 0 ; line-height: 1.25 ; margin-top: -2px&quot;&gt;&lt;span&gt;&lt;span style=&quot;font-size: 16.7px ; color: #3a414a&quot;&gt;Write the result of each transaction and bend the block for final addition to the ledger when the block result comes from the base broker&amp;nbsp;&lt;/span&gt;&lt;/span&gt;&lt;/div&gt;" style="rounded=1;arcSize=20;whiteSpace=wrap;overflow=block;blockSpacing=1;html=1;fontSize=13;spacing=0;strokeColor=#3a414a;strokeOpacity=100;strokeWidth=0.8;" parent="1" vertex="1">
          <mxGeometry x="1340.99" y="740" width="310" height="92.69" as="geometry" />
        </mxCell>
        <UserObject label="" lucidchartObjectId="zNQ9Hi1Wu8Fh" id="pPeF-HTOgFZXbcfXd0PG-50">
          <mxCell style="html=1;jettySize=18;whiteSpace=wrap;overflow=block;blockSpacing=1;fontSize=13;strokeColor=#3a414a;strokeOpacity=100;strokeWidth=0.8;rounded=1;arcSize=12;edgeStyle=orthogonalEdgeStyle;startArrow=none;endArrow=block;endFill=1;exitX=0.5;exitY=1.003;exitPerimeter=0;entryX=0.5;entryY=-0.003;entryPerimeter=0;" parent="1" source="pPeF-HTOgFZXbcfXd0PG-45" target="pPeF-HTOgFZXbcfXd0PG-49" edge="1">
            <mxGeometry width="100" height="100" relative="1" as="geometry">
              <Array as="points" />
            </mxGeometry>
          </mxCell>
        </UserObject>
        <mxCell id="pPeF-HTOgFZXbcfXd0PG-52" value="&lt;div style=&quot;display: flex ; justify-content: center ; text-align: center ; align-items: baseline ; font-size: 0 ; line-height: 1.25 ; margin-top: -2px&quot;&gt;&lt;span&gt;&lt;span style=&quot;font-size: 16.7px ; color: #3a414a&quot;&gt;Send the result of the block to the base broker in its fog area&lt;/span&gt;&lt;/span&gt;&lt;/div&gt;" style="rounded=1;arcSize=20;whiteSpace=wrap;overflow=block;blockSpacing=1;html=1;fontSize=13;spacing=0;strokeColor=#3a414a;strokeOpacity=100;strokeWidth=0.8;" parent="1" vertex="1">
          <mxGeometry x="1340" y="850" width="310" height="50" as="geometry" />
        </mxCell>
        <mxCell id="q8GRIB_LQ3VLVeIIKjB8-6" style="edgeStyle=orthogonalEdgeStyle;rounded=0;orthogonalLoop=1;jettySize=auto;html=1;exitX=0.5;exitY=1;exitDx=0;exitDy=0;" parent="1" source="q8GRIB_LQ3VLVeIIKjB8-3" target="q8GRIB_LQ3VLVeIIKjB8-5" edge="1">
          <mxGeometry relative="1" as="geometry" />
        </mxCell>
        <mxCell id="q8GRIB_LQ3VLVeIIKjB8-3" value="&lt;div style=&quot;display: flex ; justify-content: center ; text-align: center ; align-items: baseline ; line-height: 1.25 ; margin-top: -2px&quot;&gt;&lt;font color=&quot;#3a414a&quot;&gt;&lt;span style=&quot;font-size: 16.7px&quot;&gt;Collect the result from each fog node and adds them to each transaction&lt;/span&gt;&lt;/font&gt;&lt;/div&gt;" style="rounded=1;arcSize=20;whiteSpace=wrap;overflow=block;blockSpacing=1;html=1;fontSize=13;spacing=0;strokeColor=#3a414a;strokeOpacity=100;strokeWidth=0.8;" parent="1" vertex="1">
          <mxGeometry x="1100" y="785" width="220" height="70.39" as="geometry" />
        </mxCell>
        <mxCell id="rrN4N4hDKfbgkkzq7W36-14" style="edgeStyle=orthogonalEdgeStyle;rounded=0;orthogonalLoop=1;jettySize=auto;html=1;exitX=0;exitY=0.5;exitDx=0;exitDy=0;entryX=1;entryY=0.5;entryDx=0;entryDy=0;" edge="1" parent="1" source="q8GRIB_LQ3VLVeIIKjB8-5" target="q8GRIB_LQ3VLVeIIKjB8-7">
          <mxGeometry relative="1" as="geometry" />
        </mxCell>
        <mxCell id="q8GRIB_LQ3VLVeIIKjB8-5" value="&lt;div style=&quot;display: flex ; justify-content: center ; text-align: center ; align-items: baseline ; font-size: 0 ; line-height: 1.25 ; margin-top: -2px&quot;&gt;&lt;span&gt;&lt;span style=&quot;font-size: 16.7px ; color: #3a414a&quot;&gt;Send the collected results to all other base brokers in the other fog areas&lt;/span&gt;&lt;/span&gt;&lt;/div&gt;" style="rounded=1;arcSize=20;whiteSpace=wrap;overflow=block;blockSpacing=1;html=1;fontSize=13;spacing=0;strokeColor=#3a414a;strokeOpacity=100;strokeWidth=0.8;" parent="1" vertex="1">
          <mxGeometry x="1107.75" y="895.39" width="204.5" height="83" as="geometry" />
        </mxCell>
        <mxCell id="q8GRIB_LQ3VLVeIIKjB8-12" style="edgeStyle=orthogonalEdgeStyle;rounded=0;orthogonalLoop=1;jettySize=auto;html=1;exitX=0.5;exitY=1;exitDx=0;exitDy=0;entryX=0.5;entryY=0;entryDx=0;entryDy=0;" parent="1" source="q8GRIB_LQ3VLVeIIKjB8-9" target="q8GRIB_LQ3VLVeIIKjB8-11" edge="1">
          <mxGeometry relative="1" as="geometry" />
        </mxCell>
        <mxCell id="q8GRIB_LQ3VLVeIIKjB8-9" value="&lt;div style=&quot;display: flex ; justify-content: center ; text-align: center ; align-items: baseline ; font-size: 0 ; line-height: 1.25 ; margin-top: -2px&quot;&gt;&lt;span&gt;&lt;span style=&quot;font-size: 16.7px ; color: #3a414a&quot;&gt;Adds the results collected for each transaction&lt;/span&gt;&lt;/span&gt;&lt;/div&gt;" style="rounded=1;arcSize=20;whiteSpace=wrap;overflow=block;blockSpacing=1;html=1;fontSize=13;spacing=0;strokeColor=#3a414a;strokeOpacity=100;strokeWidth=0.8;" parent="1" vertex="1">
          <mxGeometry x="630" y="1170" width="200" height="83" as="geometry" />
        </mxCell>
        <mxCell id="70MOKPNWR5bHBcbS_oCV-28" style="edgeStyle=orthogonalEdgeStyle;rounded=0;orthogonalLoop=1;jettySize=auto;html=1;entryX=1;entryY=0.5;entryDx=0;entryDy=0;" parent="1" source="q8GRIB_LQ3VLVeIIKjB8-11" target="q8GRIB_LQ3VLVeIIKjB8-13" edge="1">
          <mxGeometry relative="1" as="geometry" />
        </mxCell>
        <mxCell id="q8GRIB_LQ3VLVeIIKjB8-11" value="&lt;div style=&quot;display: flex ; justify-content: center ; text-align: center ; align-items: baseline ; font-size: 0 ; line-height: 1.25 ; margin-top: -2px&quot;&gt;&lt;span&gt;&lt;span style=&quot;font-size: 16.7px ; color: #3a414a&quot;&gt;Sends the results to the fog nodes in the same fog area&lt;/span&gt;&lt;/span&gt;&lt;/div&gt;" style="rounded=1;arcSize=20;whiteSpace=wrap;overflow=block;blockSpacing=1;html=1;fontSize=13;spacing=0;strokeColor=#3a414a;strokeOpacity=100;strokeWidth=0.8;" parent="1" vertex="1">
          <mxGeometry x="635" y="1280" width="190" height="83" as="geometry" />
        </mxCell>
        <mxCell id="q8GRIB_LQ3VLVeIIKjB8-17" style="edgeStyle=orthogonalEdgeStyle;rounded=0;orthogonalLoop=1;jettySize=auto;html=1;exitX=0.5;exitY=1;exitDx=0;exitDy=0;entryX=0.5;entryY=0;entryDx=0;entryDy=0;" parent="1" source="q8GRIB_LQ3VLVeIIKjB8-13" target="q8GRIB_LQ3VLVeIIKjB8-16" edge="1">
          <mxGeometry relative="1" as="geometry" />
        </mxCell>
        <mxCell id="q8GRIB_LQ3VLVeIIKjB8-13" value="&lt;div style=&quot;display: flex ; justify-content: center ; text-align: center ; align-items: baseline ; font-size: 0 ; line-height: 1.25 ; margin-top: -2px&quot;&gt;&lt;span&gt;&lt;span style=&quot;font-size: 16.7px ; color: #3a414a&quot;&gt;Receives the final results from the base broker&lt;/span&gt;&lt;/span&gt;&lt;/div&gt;" style="rounded=1;arcSize=20;whiteSpace=wrap;overflow=block;blockSpacing=1;html=1;fontSize=13;spacing=0;strokeColor=#3a414a;strokeOpacity=100;strokeWidth=0.8;" parent="1" vertex="1">
          <mxGeometry x="396.5" y="300" width="160" height="83" as="geometry" />
        </mxCell>
        <mxCell id="q8GRIB_LQ3VLVeIIKjB8-21" style="edgeStyle=orthogonalEdgeStyle;rounded=0;orthogonalLoop=1;jettySize=auto;html=1;exitX=0;exitY=0.5;exitDx=0;exitDy=0;entryX=0.131;entryY=-0.038;entryDx=0;entryDy=0;entryPerimeter=0;" parent="1" source="q8GRIB_LQ3VLVeIIKjB8-16" target="q8GRIB_LQ3VLVeIIKjB8-20" edge="1">
          <mxGeometry relative="1" as="geometry">
            <mxPoint x="411.5" y="660" as="targetPoint" />
            <Array as="points">
              <mxPoint x="370" y="480" />
            </Array>
          </mxGeometry>
        </mxCell>
        <mxCell id="q8GRIB_LQ3VLVeIIKjB8-23" style="edgeStyle=orthogonalEdgeStyle;rounded=0;orthogonalLoop=1;jettySize=auto;html=1;exitX=1;exitY=0.5;exitDx=0;exitDy=0;entryX=0.779;entryY=0;entryDx=0;entryDy=0;entryPerimeter=0;" parent="1" source="q8GRIB_LQ3VLVeIIKjB8-16" target="q8GRIB_LQ3VLVeIIKjB8-24" edge="1">
          <mxGeometry relative="1" as="geometry">
            <mxPoint x="500" y="630" as="targetPoint" />
            <Array as="points">
              <mxPoint x="573" y="540" />
              <mxPoint x="530" y="540" />
            </Array>
          </mxGeometry>
        </mxCell>
        <mxCell id="q8GRIB_LQ3VLVeIIKjB8-16" value="&lt;span style=&quot;color: rgb(58, 65, 74);&quot;&gt;&lt;font style=&quot;font-size: 12px;&quot;&gt;&lt;b&gt;checks the result of each transaction if&amp;nbsp; &amp;gt; 2/3 of fog nodes accepted the transaction&lt;/b&gt;&lt;/font&gt;&lt;/span&gt;" style="rhombus;whiteSpace=wrap;html=1;" parent="1" vertex="1">
          <mxGeometry x="379.75" y="400" width="193.5" height="160" as="geometry" />
        </mxCell>
        <mxCell id="q8GRIB_LQ3VLVeIIKjB8-28" style="edgeStyle=orthogonalEdgeStyle;rounded=0;orthogonalLoop=1;jettySize=auto;html=1;exitX=0.5;exitY=1;exitDx=0;exitDy=0;entryX=0.5;entryY=0;entryDx=0;entryDy=0;" parent="1" source="q8GRIB_LQ3VLVeIIKjB8-20" target="q8GRIB_LQ3VLVeIIKjB8-27" edge="1">
          <mxGeometry relative="1" as="geometry" />
        </mxCell>
        <mxCell id="TRnXH6oCPx6yjBUk1Vtk-2" value="" style="edgeStyle=orthogonalEdgeStyle;rounded=0;orthogonalLoop=1;jettySize=auto;html=1;" parent="1" source="q8GRIB_LQ3VLVeIIKjB8-20" target="q8GRIB_LQ3VLVeIIKjB8-47" edge="1">
          <mxGeometry relative="1" as="geometry" />
        </mxCell>
        <mxCell id="q8GRIB_LQ3VLVeIIKjB8-20" value="&lt;span style=&quot;color: rgb(58 , 65 , 74) ; font-size: 16.7px&quot;&gt;Accepts the transaction&lt;/span&gt;" style="rounded=1;whiteSpace=wrap;html=1;" parent="1" vertex="1">
          <mxGeometry x="354" y="640" width="120" height="60" as="geometry" />
        </mxCell>
        <mxCell id="q8GRIB_LQ3VLVeIIKjB8-22" value="Yes" style="text;html=1;strokeColor=none;fillColor=none;align=center;verticalAlign=middle;whiteSpace=wrap;rounded=0;" parent="1" vertex="1">
          <mxGeometry x="375.5" y="496.5" width="27" height="20" as="geometry" />
        </mxCell>
        <mxCell id="70MOKPNWR5bHBcbS_oCV-44" style="edgeStyle=orthogonalEdgeStyle;rounded=0;orthogonalLoop=1;jettySize=auto;html=1;entryX=0.893;entryY=0;entryDx=0;entryDy=0;entryPerimeter=0;fontSize=14;" parent="1" source="q8GRIB_LQ3VLVeIIKjB8-24" target="q8GRIB_LQ3VLVeIIKjB8-47" edge="1">
          <mxGeometry relative="1" as="geometry">
            <Array as="points">
              <mxPoint x="550" y="728" />
              <mxPoint x="540" y="728" />
            </Array>
          </mxGeometry>
        </mxCell>
        <mxCell id="q8GRIB_LQ3VLVeIIKjB8-24" value="&lt;font color=&quot;#3a414a&quot;&gt;&lt;span style=&quot;font-size: 16.7px&quot;&gt;Rejects the transaction&lt;/span&gt;&lt;/font&gt;" style="rounded=1;whiteSpace=wrap;html=1;" parent="1" vertex="1">
          <mxGeometry x="436.5" y="575" width="120" height="60" as="geometry" />
        </mxCell>
        <mxCell id="q8GRIB_LQ3VLVeIIKjB8-25" value="No" style="text;html=1;strokeColor=none;fillColor=none;align=center;verticalAlign=middle;whiteSpace=wrap;rounded=0;" parent="1" vertex="1">
          <mxGeometry x="530" y="516.5" width="54" height="25" as="geometry" />
        </mxCell>
        <mxCell id="70MOKPNWR5bHBcbS_oCV-45" style="edgeStyle=orthogonalEdgeStyle;rounded=0;orthogonalLoop=1;jettySize=auto;html=1;entryX=0.136;entryY=0;entryDx=0;entryDy=0;entryPerimeter=0;fontSize=14;" parent="1" source="q8GRIB_LQ3VLVeIIKjB8-27" target="q8GRIB_LQ3VLVeIIKjB8-47" edge="1">
          <mxGeometry relative="1" as="geometry" />
        </mxCell>
        <mxCell id="q8GRIB_LQ3VLVeIIKjB8-27" value="&lt;div style=&quot;display: flex ; justify-content: center ; text-align: center ; align-items: baseline ; font-size: 0 ; line-height: 1.25 ; margin-top: -2px&quot;&gt;&lt;span&gt;&lt;span style=&quot;font-size: 16.7px ; color: #3a414a&quot;&gt;Adds the block to the ledger and save the results to itself&lt;/span&gt;&lt;/span&gt;&lt;/div&gt;" style="rounded=1;arcSize=20;whiteSpace=wrap;overflow=block;blockSpacing=1;html=1;fontSize=13;spacing=0;strokeColor=#3a414a;strokeOpacity=100;strokeWidth=0.8;" parent="1" vertex="1">
          <mxGeometry x="354" y="716.5" width="160" height="63.5" as="geometry" />
        </mxCell>
        <mxCell id="q8GRIB_LQ3VLVeIIKjB8-51" style="edgeStyle=orthogonalEdgeStyle;rounded=0;orthogonalLoop=1;jettySize=auto;html=1;exitX=0.488;exitY=0.523;exitDx=0;exitDy=0;entryX=0.5;entryY=0;entryDx=0;entryDy=0;exitPerimeter=0;" parent="1" source="q8GRIB_LQ3VLVeIIKjB8-47" target="q8GRIB_LQ3VLVeIIKjB8-29" edge="1">
          <mxGeometry relative="1" as="geometry" />
        </mxCell>
        <mxCell id="q8GRIB_LQ3VLVeIIKjB8-29" value="" style="ellipse;html=1;shape=endState;fillColor=#000000;strokeColor=#000000;" parent="1" vertex="1">
          <mxGeometry x="470" y="820" width="30" height="30" as="geometry" />
        </mxCell>
        <mxCell id="q8GRIB_LQ3VLVeIIKjB8-31" style="edgeStyle=orthogonalEdgeStyle;rounded=0;orthogonalLoop=1;jettySize=auto;html=1;exitX=0.5;exitY=1;exitDx=0;exitDy=0;entryX=0.5;entryY=0;entryDx=0;entryDy=0;" parent="1" source="q8GRIB_LQ3VLVeIIKjB8-32" target="q8GRIB_LQ3VLVeIIKjB8-33" edge="1">
          <mxGeometry relative="1" as="geometry" />
        </mxCell>
        <mxCell id="q8GRIB_LQ3VLVeIIKjB8-32" value="&lt;div style=&quot;display: flex ; justify-content: center ; text-align: center ; align-items: baseline ; font-size: 0 ; line-height: 1.25 ; margin-top: -2px&quot;&gt;&lt;span&gt;&lt;span style=&quot;font-size: 16.7px ; color: #3a414a&quot;&gt;Receive the final results from the base broker&lt;/span&gt;&lt;/span&gt;&lt;/div&gt;" style="rounded=1;arcSize=20;whiteSpace=wrap;overflow=block;blockSpacing=1;html=1;fontSize=13;spacing=0;strokeColor=#3a414a;strokeOpacity=100;strokeWidth=0.8;" parent="1" vertex="1">
          <mxGeometry x="1411.02" y="988.39" width="160" height="83" as="geometry" />
        </mxCell>
        <mxCell id="q8GRIB_LQ3VLVeIIKjB8-33" value="&lt;span style=&quot;color: rgb(58, 65, 74);&quot;&gt;&lt;font style=&quot;font-size: 12px;&quot;&gt;&lt;b&gt;check the result of each transaction, if&amp;nbsp; &amp;gt; 2/3 of fog nodes accepted the transaction&lt;/b&gt;&lt;/font&gt;&lt;/span&gt;" style="rhombus;whiteSpace=wrap;html=1;" parent="1" vertex="1">
          <mxGeometry x="1394.02" y="1088.3899999999999" width="194" height="160" as="geometry" />
        </mxCell>
        <mxCell id="q8GRIB_LQ3VLVeIIKjB8-34" style="edgeStyle=orthogonalEdgeStyle;rounded=0;orthogonalLoop=1;jettySize=auto;html=1;exitX=0.5;exitY=1;exitDx=0;exitDy=0;entryX=0.5;entryY=0;entryDx=0;entryDy=0;" parent="1" source="q8GRIB_LQ3VLVeIIKjB8-35" target="q8GRIB_LQ3VLVeIIKjB8-38" edge="1">
          <mxGeometry relative="1" as="geometry" />
        </mxCell>
        <mxCell id="q8GRIB_LQ3VLVeIIKjB8-35" value="&lt;span style=&quot;color: rgb(58 , 65 , 74) ; font-size: 16.7px&quot;&gt;Accept the transaction&lt;/span&gt;" style="rounded=1;whiteSpace=wrap;html=1;" parent="1" vertex="1">
          <mxGeometry x="1374.52" y="1258.3899999999999" width="110" height="60" as="geometry" />
        </mxCell>
        <mxCell id="q8GRIB_LQ3VLVeIIKjB8-36" value="&lt;font color=&quot;#3a414a&quot;&gt;&lt;span style=&quot;font-size: 16.7px&quot;&gt;Reject the transaction&lt;/span&gt;&lt;/font&gt;" style="rounded=1;whiteSpace=wrap;html=1;" parent="1" vertex="1">
          <mxGeometry x="1504.52" y="1261.3899999999999" width="90" height="60" as="geometry" />
        </mxCell>
        <mxCell id="q8GRIB_LQ3VLVeIIKjB8-38" value="&lt;div style=&quot;display: flex ; justify-content: center ; text-align: center ; align-items: baseline ; font-size: 0 ; line-height: 1.25 ; margin-top: -2px&quot;&gt;&lt;span&gt;&lt;span style=&quot;font-size: 16.7px ; color: #3a414a&quot;&gt;Add the block to the ledger and saves the results to itself&lt;/span&gt;&lt;/span&gt;&lt;/div&gt;" style="rounded=1;arcSize=20;whiteSpace=wrap;overflow=block;blockSpacing=1;html=1;fontSize=13;spacing=0;strokeColor=#3a414a;strokeOpacity=100;strokeWidth=0.8;" parent="1" vertex="1">
          <mxGeometry x="1374.52" y="1334.8899999999999" width="150" height="73" as="geometry" />
        </mxCell>
        <mxCell id="q8GRIB_LQ3VLVeIIKjB8-39" value="" style="ellipse;html=1;shape=endState;fillColor=#000000;strokeColor=#000000;" parent="1" vertex="1">
          <mxGeometry x="1484.52" y="1443.3899999999999" width="30" height="30" as="geometry" />
        </mxCell>
        <mxCell id="q8GRIB_LQ3VLVeIIKjB8-44" value="No" style="text;html=1;strokeColor=none;fillColor=none;align=center;verticalAlign=middle;whiteSpace=wrap;rounded=0;" parent="1" vertex="1">
          <mxGeometry x="1548.26" y="1223.3899999999999" width="54" height="25" as="geometry" />
        </mxCell>
        <mxCell id="q8GRIB_LQ3VLVeIIKjB8-45" value="Yes" style="text;html=1;strokeColor=none;fillColor=none;align=center;verticalAlign=middle;whiteSpace=wrap;rounded=0;" parent="1" vertex="1">
          <mxGeometry x="1379.78" y="1225.8899999999999" width="27" height="20" as="geometry" />
        </mxCell>
        <mxCell id="q8GRIB_LQ3VLVeIIKjB8-47" value="" style="line;strokeWidth=1;fillColor=none;align=left;verticalAlign=middle;spacingTop=-1;spacingLeft=3;spacingRight=3;rotatable=0;labelPosition=right;points=[];portConstraint=eastwest;" parent="1" vertex="1">
          <mxGeometry x="415" y="800" width="140" height="5" as="geometry" />
        </mxCell>
        <mxCell id="70MOKPNWR5bHBcbS_oCV-25" style="edgeStyle=orthogonalEdgeStyle;rounded=0;orthogonalLoop=1;jettySize=auto;html=1;entryX=0.5;entryY=0;entryDx=0;entryDy=0;" parent="1" source="q8GRIB_LQ3VLVeIIKjB8-60" target="q8GRIB_LQ3VLVeIIKjB8-9" edge="1">
          <mxGeometry relative="1" as="geometry" />
        </mxCell>
        <mxCell id="q8GRIB_LQ3VLVeIIKjB8-60" value="&lt;div style=&quot;display: flex ; justify-content: center ; text-align: center ; align-items: baseline ; font-size: 0 ; line-height: 1.25 ; margin-top: -2px&quot;&gt;&lt;span&gt;&lt;span style=&quot;font-size: 16.7px ; color: #3a414a&quot;&gt;Checks the authenticity of the results&lt;/span&gt;&lt;/span&gt;&lt;/div&gt;" style="rounded=1;arcSize=20;whiteSpace=wrap;overflow=block;blockSpacing=1;html=1;fontSize=13;spacing=0;strokeColor=#3a414a;strokeOpacity=100;strokeWidth=0.8;" parent="1" vertex="1">
          <mxGeometry x="625" y="1060" width="210" height="83" as="geometry" />
        </mxCell>
        <UserObject label="the authenticity is checked through&lt;br&gt;- signature of base brokers&amp;nbsp;&lt;br&gt;- symmetric encryption&amp;nbsp;" lucidchartObjectId="HMQ988gk.g1M" id="q8GRIB_LQ3VLVeIIKjB8-63">
          <mxCell style="html=1;overflow=block;blockSpacing=1;whiteSpace=wrap;shadow=1;fontSize=13;spacing=3.8;strokeColor=none;fillColor=#FFECA9;strokeWidth=0;" parent="1" vertex="1">
            <mxGeometry x="1168" y="-320" width="145" height="120" as="geometry" />
          </mxCell>
        </UserObject>
        <mxCell id="q8GRIB_LQ3VLVeIIKjB8-66" value="" style="rounded=0;whiteSpace=wrap;html=1;" parent="1" vertex="1">
          <mxGeometry x="1772" y="-146.5" width="520" height="360" as="geometry" />
        </mxCell>
        <mxCell id="q8GRIB_LQ3VLVeIIKjB8-67" value="&lt;b&gt;Smart Contract&lt;/b&gt;" style="text;html=1;strokeColor=none;fillColor=none;align=center;verticalAlign=middle;whiteSpace=wrap;rounded=0;" parent="1" vertex="1">
          <mxGeometry x="2002" y="-136.5" width="90" height="30" as="geometry" />
        </mxCell>
        <mxCell id="q8GRIB_LQ3VLVeIIKjB8-68" value="" style="endArrow=none;html=1;rounded=0;" parent="1" edge="1">
          <mxGeometry width="50" height="50" relative="1" as="geometry">
            <mxPoint x="1772" y="-91.5" as="sourcePoint" />
            <mxPoint x="2292" y="-91.5" as="targetPoint" />
          </mxGeometry>
        </mxCell>
        <mxCell id="q8GRIB_LQ3VLVeIIKjB8-69" value="" style="endArrow=none;html=1;rounded=0;exitX=0.5;exitY=1;exitDx=0;exitDy=0;" parent="1" source="q8GRIB_LQ3VLVeIIKjB8-66" edge="1">
          <mxGeometry width="50" height="50" relative="1" as="geometry">
            <mxPoint x="1742" y="58.5" as="sourcePoint" />
            <mxPoint x="2032" y="-91.5" as="targetPoint" />
          </mxGeometry>
        </mxCell>
        <mxCell id="q8GRIB_LQ3VLVeIIKjB8-70" value="&lt;b&gt;Registration&lt;/b&gt;" style="text;html=1;strokeColor=none;fillColor=none;align=center;verticalAlign=middle;whiteSpace=wrap;rounded=0;" parent="1" vertex="1">
          <mxGeometry x="1772" y="-96.5" width="90" height="40" as="geometry" />
        </mxCell>
        <mxCell id="q8GRIB_LQ3VLVeIIKjB8-71" value="&lt;b&gt;Authentication&lt;/b&gt;" style="text;html=1;strokeColor=none;fillColor=none;align=center;verticalAlign=middle;whiteSpace=wrap;rounded=0;" parent="1" vertex="1">
          <mxGeometry x="2030" y="-96.5" width="100" height="40" as="geometry" />
        </mxCell>
        <mxCell id="q8GRIB_LQ3VLVeIIKjB8-72" value="&lt;b&gt;1- Check Time Stamp():&lt;/b&gt;&lt;br&gt;Compare between the time the request was created at and the time it was received at and is compared to a time window and return a boolean" style="text;html=1;strokeColor=none;fillColor=none;align=center;verticalAlign=middle;whiteSpace=wrap;rounded=0;" parent="1" vertex="1">
          <mxGeometry x="1770" y="-26.5" width="260" height="50" as="geometry" />
        </mxCell>
        <mxCell id="q8GRIB_LQ3VLVeIIKjB8-73" value="&lt;b&gt;2- Hash Match():&lt;/b&gt;&lt;br&gt;- decrypts the content of the request using the private key of the system.&lt;br&gt;- Hash the content of the request.&lt;br&gt;- compare between the received hash and the produced hash.&lt;br&gt;- return a boolean" style="text;html=1;strokeColor=none;fillColor=none;align=center;verticalAlign=middle;whiteSpace=wrap;rounded=0;" parent="1" vertex="1">
          <mxGeometry x="1772" y="73.5" width="260" height="90" as="geometry" />
        </mxCell>
        <mxCell id="q8GRIB_LQ3VLVeIIKjB8-74" value="" style="endArrow=none;html=1;rounded=0;entryX=1;entryY=0.272;entryDx=0;entryDy=0;entryPerimeter=0;" parent="1" target="q8GRIB_LQ3VLVeIIKjB8-66" edge="1">
          <mxGeometry width="50" height="50" relative="1" as="geometry">
            <mxPoint x="1772" y="-48.5" as="sourcePoint" />
            <mxPoint x="1882" y="3.5" as="targetPoint" />
          </mxGeometry>
        </mxCell>
        <mxCell id="q8GRIB_LQ3VLVeIIKjB8-75" value="" style="endArrow=none;html=1;rounded=0;" parent="1" edge="1">
          <mxGeometry width="50" height="50" relative="1" as="geometry">
            <mxPoint x="1772" y="56.5" as="sourcePoint" />
            <mxPoint x="2032" y="56.5" as="targetPoint" />
          </mxGeometry>
        </mxCell>
        <mxCell id="q8GRIB_LQ3VLVeIIKjB8-76" value="&lt;b&gt;1- Check Time Stamp(): &lt;/b&gt;same as registration" style="text;html=1;strokeColor=none;fillColor=none;align=center;verticalAlign=middle;whiteSpace=wrap;rounded=0;" parent="1" vertex="1">
          <mxGeometry x="2030" y="-46.5" width="262" height="30" as="geometry" />
        </mxCell>
        <mxCell id="q8GRIB_LQ3VLVeIIKjB8-77" value="&lt;br&gt;&lt;br&gt;&lt;b style=&quot;color: rgb(0 , 0 , 0) ; font-family: &amp;#34;helvetica&amp;#34; ; font-size: 12px ; font-style: normal ; letter-spacing: normal ; text-align: center ; text-indent: 0px ; text-transform: none ; word-spacing: 0px ; background-color: rgb(248 , 249 , 250)&quot;&gt;2- Hash Match():&amp;nbsp;&lt;/b&gt;same as registration&lt;br style=&quot;color: rgb(0 , 0 , 0) ; font-family: &amp;#34;helvetica&amp;#34; ; font-size: 12px ; font-style: normal ; font-weight: 400 ; letter-spacing: normal ; text-align: center ; text-indent: 0px ; text-transform: none ; word-spacing: 0px ; background-color: rgb(248 , 249 , 250)&quot;&gt;&lt;br&gt;" style="text;html=1;strokeColor=none;fillColor=none;align=center;verticalAlign=middle;whiteSpace=wrap;rounded=0;" parent="1" vertex="1">
          <mxGeometry x="2031" y="-6.5" width="260" height="30" as="geometry" />
        </mxCell>
        <mxCell id="q8GRIB_LQ3VLVeIIKjB8-78" value="&lt;b&gt;3- Certification Matching():&lt;/b&gt;&lt;br&gt;- Get the certificate related with the real id.&lt;br&gt;- drive a certificate from the received signature.&lt;br&gt;- compare the saved certificate and received certificate.&lt;br&gt;- return a boolean.&amp;nbsp;" style="text;html=1;strokeColor=none;fillColor=none;align=center;verticalAlign=middle;whiteSpace=wrap;rounded=0;" parent="1" vertex="1">
          <mxGeometry x="2032" y="53.5" width="260" height="80" as="geometry" />
        </mxCell>
        <mxCell id="q8GRIB_LQ3VLVeIIKjB8-79" value="" style="endArrow=none;html=1;rounded=0;" parent="1" edge="1">
          <mxGeometry width="50" height="50" relative="1" as="geometry">
            <mxPoint x="2032" y="-6.5" as="sourcePoint" />
            <mxPoint x="2292" y="-6.5" as="targetPoint" />
          </mxGeometry>
        </mxCell>
        <mxCell id="q8GRIB_LQ3VLVeIIKjB8-80" value="" style="endArrow=none;html=1;rounded=0;entryX=1.001;entryY=0.525;entryDx=0;entryDy=0;entryPerimeter=0;" parent="1" target="q8GRIB_LQ3VLVeIIKjB8-66" edge="1">
          <mxGeometry width="50" height="50" relative="1" as="geometry">
            <mxPoint x="2032" y="43.5" as="sourcePoint" />
            <mxPoint x="2212" y="13.5" as="targetPoint" />
          </mxGeometry>
        </mxCell>
        <mxCell id="70MOKPNWR5bHBcbS_oCV-24" style="edgeStyle=orthogonalEdgeStyle;rounded=0;orthogonalLoop=1;jettySize=auto;html=1;entryX=0.5;entryY=0;entryDx=0;entryDy=0;" parent="1" source="q8GRIB_LQ3VLVeIIKjB8-7" target="q8GRIB_LQ3VLVeIIKjB8-60" edge="1">
          <mxGeometry relative="1" as="geometry" />
        </mxCell>
        <mxCell id="o1kDmngT1EuIltLsT5cY-1" value="&#xa;&lt;b style=&quot;color: rgb(0, 0, 0); font-family: Helvetica; font-size: 12px; font-style: normal; font-variant-ligatures: normal; font-variant-caps: normal; letter-spacing: normal; orphans: 2; text-align: center; text-indent: 0px; text-transform: none; widows: 2; word-spacing: 0px; -webkit-text-stroke-width: 0px; background-color: rgb(248, 249, 250); text-decoration-thickness: initial; text-decoration-style: initial; text-decoration-color: initial;&quot;&gt;3- Certification Matching():&lt;/b&gt;&lt;br style=&quot;color: rgb(0, 0, 0); font-family: Helvetica; font-size: 12px; font-style: normal; font-variant-ligatures: normal; font-variant-caps: normal; font-weight: 400; letter-spacing: normal; orphans: 2; text-align: center; text-indent: 0px; text-transform: none; widows: 2; word-spacing: 0px; -webkit-text-stroke-width: 0px; background-color: rgb(248, 249, 250); text-decoration-thickness: initial; text-decoration-style: initial; text-decoration-color: initial;&quot;&gt;&lt;span style=&quot;color: rgb(0, 0, 0); font-family: Helvetica; font-size: 12px; font-style: normal; font-variant-ligatures: normal; font-variant-caps: normal; font-weight: 400; letter-spacing: normal; orphans: 2; text-align: center; text-indent: 0px; text-transform: none; widows: 2; word-spacing: 0px; -webkit-text-stroke-width: 0px; background-color: rgb(248, 249, 250); text-decoration-thickness: initial; text-decoration-style: initial; text-decoration-color: initial; float: none; display: inline !important;&quot;&gt;- Get the certificate related with the real id.&lt;/span&gt;&lt;br style=&quot;color: rgb(0, 0, 0); font-family: Helvetica; font-size: 12px; font-style: normal; font-variant-ligatures: normal; font-variant-caps: normal; font-weight: 400; letter-spacing: normal; orphans: 2; text-align: center; text-indent: 0px; text-transform: none; widows: 2; word-spacing: 0px; -webkit-text-stroke-width: 0px; background-color: rgb(248, 249, 250); text-decoration-thickness: initial; text-decoration-style: initial; text-decoration-color: initial;&quot;&gt;&lt;span style=&quot;color: rgb(0, 0, 0); font-family: Helvetica; font-size: 12px; font-style: normal; font-variant-ligatures: normal; font-variant-caps: normal; font-weight: 400; letter-spacing: normal; orphans: 2; text-align: center; text-indent: 0px; text-transform: none; widows: 2; word-spacing: 0px; -webkit-text-stroke-width: 0px; background-color: rgb(248, 249, 250); text-decoration-thickness: initial; text-decoration-style: initial; text-decoration-color: initial; float: none; display: inline !important;&quot;&gt;- drive a certificate from the received signature.&lt;/span&gt;&lt;br style=&quot;color: rgb(0, 0, 0); font-family: Helvetica; font-size: 12px; font-style: normal; font-variant-ligatures: normal; font-variant-caps: normal; font-weight: 400; letter-spacing: normal; orphans: 2; text-align: center; text-indent: 0px; text-transform: none; widows: 2; word-spacing: 0px; -webkit-text-stroke-width: 0px; background-color: rgb(248, 249, 250); text-decoration-thickness: initial; text-decoration-style: initial; text-decoration-color: initial;&quot;&gt;&lt;span style=&quot;color: rgb(0, 0, 0); font-family: Helvetica; font-size: 12px; font-style: normal; font-variant-ligatures: normal; font-variant-caps: normal; font-weight: 400; letter-spacing: normal; orphans: 2; text-align: center; text-indent: 0px; text-transform: none; widows: 2; word-spacing: 0px; -webkit-text-stroke-width: 0px; background-color: rgb(248, 249, 250); text-decoration-thickness: initial; text-decoration-style: initial; text-decoration-color: initial; float: none; display: inline !important;&quot;&gt;- compare the saved certificate and received certificate.&lt;/span&gt;&lt;br style=&quot;color: rgb(0, 0, 0); font-family: Helvetica; font-size: 12px; font-style: normal; font-variant-ligatures: normal; font-variant-caps: normal; font-weight: 400; letter-spacing: normal; orphans: 2; text-align: center; text-indent: 0px; text-transform: none; widows: 2; word-spacing: 0px; -webkit-text-stroke-width: 0px; background-color: rgb(248, 249, 250); text-decoration-thickness: initial; text-decoration-style: initial; text-decoration-color: initial;&quot;&gt;&lt;span style=&quot;color: rgb(0, 0, 0); font-family: Helvetica; font-size: 12px; font-style: normal; font-variant-ligatures: normal; font-variant-caps: normal; font-weight: 400; letter-spacing: normal; orphans: 2; text-align: center; text-indent: 0px; text-transform: none; widows: 2; word-spacing: 0px; -webkit-text-stroke-width: 0px; background-color: rgb(248, 249, 250); text-decoration-thickness: initial; text-decoration-style: initial; text-decoration-color: initial; float: none; display: inline !important;&quot;&gt;- return a boolean.&amp;nbsp;&lt;/span&gt;&#xa;&#xa;" style="rounded=0;whiteSpace=wrap;html=1;" parent="1" vertex="1">
          <mxGeometry x="2292" y="-93.5" width="293" height="300" as="geometry" />
        </mxCell>
        <mxCell id="o1kDmngT1EuIltLsT5cY-6" value="" style="endArrow=none;html=1;rounded=0;exitX=1.01;exitY=0.155;exitDx=0;exitDy=0;entryX=0.003;entryY=0.152;entryDx=0;entryDy=0;entryPerimeter=0;exitPerimeter=0;" parent="1" source="o1kDmngT1EuIltLsT5cY-1" target="o1kDmngT1EuIltLsT5cY-1" edge="1">
          <mxGeometry width="50" height="50" relative="1" as="geometry">
            <mxPoint x="2175" y="33.5" as="sourcePoint" />
            <mxPoint x="2315" y="-16.5" as="targetPoint" />
            <Array as="points">
              <mxPoint x="2435" y="-46.5" />
            </Array>
          </mxGeometry>
        </mxCell>
        <mxCell id="o1kDmngT1EuIltLsT5cY-7" value="&lt;b&gt;Certification Update&amp;nbsp;&lt;/b&gt;" style="text;html=1;strokeColor=none;fillColor=none;align=center;verticalAlign=middle;whiteSpace=wrap;rounded=0;" parent="1" vertex="1">
          <mxGeometry x="2345" y="-86.5" width="200" height="30" as="geometry" />
        </mxCell>
      </root>
    </mxGraphModel>
  </diagram>
</mxfile>
